<?xml version="1.0" encoding="utf-8"?>
<svg version="1.1" id="OBSVG" xmlns="http://www.w3.org/2000/svg" xmlns:xlink="http://www.w3.org/1999/xlink" x="0px" y="0px"
	 viewBox="0 0 373 84.3" style="enable-background:new 0 0 373 84.3;" xml:space="preserve">
<style type="text/css">
	.st0{fill:#6CB23F;}
	.st1{fill:#444345;}
</style>
<g>
	<path class="st0" d="M58.5,34.8c5.1,0,9.4,1.7,12.9,5c3.5,3.3,5.2,7.4,5.2,12.2c0,4.9-1.7,9-5.3,12.3c-3.5,3.3-7.9,4.9-13,4.9
		c-0.7,0-1.3-0.1-1.9-0.1v-6.8c0.7,0.1,1.4,0.2,2.1,0.2c3.1,0,5.5-1,7.4-2.8c1.9-1.9,2.8-4.4,2.8-7.6c0-3.2-0.9-5.7-2.8-7.6
		s-4.3-2.9-7.4-2.9c-3,0-5.4,1-7.3,2.9c-1.7,1.7-2.6,3.9-2.8,6.6l-0.1,20.5l0.1,12.7h-8.1V51.7v-0.7c0.2-4.4,1.9-8.2,5.3-11.4
		C49.2,36.4,53.4,34.8,58.5,34.8"/>
	<path class="st0" d="M99,34.8c5.1,0,9.4,1.7,12.9,5c3.5,3.3,5.3,7.4,5.3,12.2c0,1-0.1,1.9-0.2,2.8H96.6v-6.4h12.1
		c-0.5-1.6-1.2-2.9-2.3-3.9c-1.9-1.9-4.3-2.9-7.4-2.9c-3,0-5.4,1-7.3,2.9c-1.9,1.9-2.8,4.4-2.8,7.4c0,3.2,0.9,5.8,2.7,7.7
		c1.9,1.9,4.3,2.9,7.4,2.9c3.1,0,5.5-1,7.4-2.8c0.4-0.5,0.8-1,1.2-1.5l7.5,2.2c-0.8,1.4-1.9,2.7-3.1,3.9c-3.5,3.3-7.9,4.9-13,4.9
		c-5.1,0-9.3-1.7-12.8-5c-3.5-3.3-5.1-7.4-5.1-12.4c0-4.7,1.7-8.7,5.3-12C89.7,36.4,94,34.8,99,34.8"/>
	<path class="st0" d="M139.6,34.8c5.1,0,9.4,1.7,12.9,5c3.5,3.3,5.2,7.4,5.2,12.2v16.6h-8V51.8c-0.1-3.1-1-5.6-2.8-7.4
		c-1.9-1.9-4.3-2.9-7.4-2.9c-3,0-5.4,1-7.3,2.9c-1.9,1.9-2.8,4.4-2.8,7.4v14.5v2.2h-8V51.8c0-4.8,1.7-8.9,5.3-12.1
		C130.3,36.4,134.5,34.8,139.6,34.8"/>
	<path class="st1" d="M170.1,19.7l-0.1,12.7l0.1,20.5c0.1,2.7,1.1,4.9,2.8,6.6c1.9,1.9,4.3,2.9,7.3,2.9c3.1,0,5.5-1,7.4-2.9
		c1.9-1.9,2.8-4.4,2.8-7.6c0-3.2-0.9-5.7-2.8-7.6c-1.9-1.9-4.3-2.8-7.4-2.8c-0.7,0-1.4,0.1-2.1,0.2v-6.8c0.7-0.1,1.3-0.1,2-0.1
		c5.1,0,9.5,1.6,13,4.9c3.5,3.3,5.3,7.4,5.3,12.3c0,4.8-1.7,8.9-5.2,12.2c-3.5,3.3-7.8,5-12.9,5c-5,0-9.3-1.7-12.9-5
		c-3.3-3.1-5.1-6.9-5.3-11.4v-0.7V19.6L170.1,19.7"/>
	<path class="st1" d="M170.1,19.7l-0.1,12.7l0.1,20.5c0.1,2.7,1.1,4.9,2.8,6.6c1.9,1.9,4.3,2.9,7.3,2.9c3.1,0,5.5-1,7.4-2.9
		c1.9-1.9,2.8-4.4,2.8-7.6c0-3.2-0.9-5.7-2.8-7.6c-1.9-1.9-4.3-2.8-7.4-2.8c-0.7,0-1.4,0.1-2.1,0.2v-6.8c0.7-0.1,1.3-0.1,2-0.1
		c5.1,0,9.5,1.6,13,4.9c3.5,3.3,5.3,7.4,5.3,12.3c0,4.8-1.7,8.9-5.2,12.2c-3.5,3.3-7.8,5-12.9,5c-5,0-9.3-1.7-12.9-5
		c-3.3-3.1-5.1-6.9-5.3-11.4v-0.7V19.6L170.1,19.7"/>
	<path class="st1" d="M239.6,34.8c5,0,9.3,1.6,12.9,5c3.3,3.2,5.1,6.9,5.3,11.4v0.7v16.9h-8V51.1c-0.1-2.7-1.1-4.9-2.8-6.6
		c-1.9-1.9-4.3-2.9-7.3-2.9c-3.1,0-5.5,1-7.4,2.9c-1.9,1.9-2.8,4.4-2.8,7.6c0,3.2,0.9,5.7,2.8,7.6s4.3,2.8,7.4,2.8
		c0.7,0,1.4-0.1,2.1-0.2v6.8c-0.7,0.1-1.3,0.1-2,0.1c-5.1,0-9.5-1.6-13-4.9c-3.5-3.3-5.3-7.4-5.3-12.3c0-4.8,1.7-8.9,5.2-12.2
		C230.3,36.4,234.6,34.8,239.6,34.8"/>
	<path class="st1" d="M239.6,34.8c5,0,9.3,1.6,12.9,5c3.3,3.2,5.1,6.9,5.3,11.4v0.7v16.9h-8V51.1c-0.1-2.7-1.1-4.9-2.8-6.6
		c-1.9-1.9-4.3-2.9-7.3-2.9c-3.1,0-5.5,1-7.4,2.9c-1.9,1.9-2.8,4.4-2.8,7.6c0,3.2,0.9,5.7,2.8,7.6s4.3,2.8,7.4,2.8
		c0.7,0,1.4-0.1,2.1-0.2v6.8c-0.7,0.1-1.3,0.1-2,0.1c-5.1,0-9.5-1.6-13-4.9c-3.5-3.3-5.3-7.4-5.3-12.3c0-4.8,1.7-8.9,5.2-12.2
		C230.3,36.4,234.6,34.8,239.6,34.8"/>
	<path class="st1" d="M220.5,34.8l0.1,6.8c-3.1,0-5.5,1-7.4,2.9c-1.9,1.9-2.8,4.4-2.8,7.4v14.5v2.2h-8V51.8c0-4.8,1.7-8.9,5.3-12.1
		C211.2,36.4,215.4,34.8,220.5,34.8"/>
	<path class="st1" d="M220.5,34.8l0.1,6.8c-3.1,0-5.5,1-7.4,2.9c-1.9,1.9-2.8,4.4-2.8,7.4v14.5v2.2h-8V51.8c0-4.8,1.7-8.9,5.3-12.1
		C211.2,36.4,215.4,34.8,220.5,34.8"/>
	<path class="st1" d="M295.1,35.2v16.6c0,4.8-1.7,8.9-5.2,12.2c-3.5,3.3-7.8,4.5-12.9,4.5c-5,0-13.2,0-13.2,0V35.2h8v2.2v24.8
		c0,0,2.2,0,5.2,0s5.5-1,7.4-2.9c1.8-1.9,2.8-4.4,2.8-7.4V35.2L295.1,35.2"/>
	<path class="st1" d="M295.1,35.2v16.6c0,4.8-1.7,8.9-5.2,12.2c-3.5,3.3-7.8,4.5-12.9,4.5c-5,0-13.2,0-13.2,0V35.2h8v2.2v24.8
		c0,0,2.2,0,5.2,0s5.5-1,7.4-2.9c1.8-1.9,2.8-4.4,2.8-7.4V35.2L295.1,35.2"/>
	<path class="st0" d="M18,34.7c9.9,0,18,7.7,18,17.2s-8.1,17.2-18,17.2S0,61.4,0,51.9C0,46.2,2.9,41.1,7.4,38v13.4
		c0,0.2,0,0.4,0,0.5c0,0.2,0,0.4,0,0.7c0.4,5.3,5,9.5,10.6,9.5c5.9,0,10.6-4.5,10.6-10.2S23.9,41.8,18,41.8c-1.1,0-2.3,0.2-3.3,0.5
		V35C15.7,34.8,16.9,34.7,18,34.7"/>
	<path class="st1" d="M317.7,34.7c9.9,0,18,7.7,18,17.2s-8.1,17.2-18,17.2s-18-7.7-18-17.2c0-5.7,2.9-10.8,7.4-13.9v13.4
		c0,0.2,0,0.4,0,0.5c0,0.2,0,0.4,0,0.7c0.4,5.3,5,9.5,10.6,9.5c5.9,0,10.6-4.5,10.6-10.2s-4.8-10.2-10.6-10.2
		c-1.1,0-2.3,0.2-3.3,0.5V35C315.5,34.8,316.6,34.7,317.7,34.7"/>
	<path class="st0" d="M354.9,0c10,0,18.1,7.8,18.1,17.3s-8.1,17.3-18.1,17.3c-10,0-18.1-7.8-18.1-17.3c0-5.8,3-11,7.7-14.1v14.6
		c0.1,2.6,1.1,4.7,3.1,6.6c2,1.9,4.5,2.9,7.4,2.9s5.4-1,7.5-2.9c2-1.9,3.1-4.2,3.1-7.1c0-2.8-1-5.2-3.1-7.1c-2-1.9-4.5-2.8-7.5-2.8
		c-0.4,0-0.8,0-1.1,0.1v3.9c0.4-0.1,0.8-0.1,1.2-0.1c1.8,0,3.2,0.5,4.2,1.6c1.1,1.1,1.6,2.6,1.6,4.4c0,1.9-0.5,3.3-1.6,4.4
		c-1.1,1.1-2.5,1.7-4.2,1.7c-1.7,0-3.2-0.5-4.2-1.7c-1-1-1.5-2.3-1.6-3.8L349,6V1C350.9,0.4,352.8,0,354.9,0"/>
</g>
</svg>
